<svg width="100" height="100" viewBox="0 0 100 100" fill="none" xmlns="http://www.w3.org/2000/svg">
  <circle cx="50" cy="50" r="45" fill="#1A1A1A" stroke="#F7931A" stroke-width="4"/>
  <path d="M50 15C30.67 15 15 30.67 15 50C15 69.33 30.67 85 50 85C69.33 85 85 69.33 85 50C85 30.67 69.33 15 50 15ZM50 75C36.19 75 25 63.81 25 50C25 36.19 36.19 25 50 25C63.81 25 75 36.19 75 50C75 63.81 63.81 75 50 75Z" fill="#F7931A"/>
  <path d="M65 40L50 30L35 40V60L50 70L65 60V40Z" fill="#F7931A"/>
  <path d="M50 45L42.5 50L50 55L57.5 50L50 45Z" fill="#1A1A1A"/>
</svg> 